<svg width="80" height="80" viewBox="0 0 80 80" xmlns="http://www.w3.org/2000/svg"><g fill="none" fill-rule="evenodd"><path fill="#CCC" d="M10 0h45v15h15v65H10z"/><path fill="#FFF" d="M11 1h44v14h14v64H11z"/><path fill="#989898" fill-rule="nonzero" d="M55 0l15 15H55z"/><path d="M32.225 72.885c-1.348 0-2.39-.395-3.123-1.186-.735-.791-1.102-1.911-1.102-3.36 0-1.446.374-2.567 1.122-3.364.748-.797 1.802-1.195 3.161-1.195.778 0 1.688.127 2.73.38v1.155c-1.187-.41-2.103-.615-2.747-.615-.942 0-1.67.318-2.186.955s-.773 1.535-.773 2.695c0 1.106.275 1.978.826 2.617.55.638 1.303.958 2.256.958.82 0 1.699-.252 2.636-.756v1.054a6.017 6.017 0 0 1-2.8.662zm7.787 0c-.582 0-1.326-.126-2.233-.38v-1.22c.977.454 1.78.68 2.408.68.485 0 .875-.126 1.17-.38.294-.254.442-.588.442-1.002 0-.34-.097-.63-.29-.867-.194-.239-.55-.504-1.07-.797l-.597-.346c-.738-.422-1.259-.82-1.562-1.192a2.008 2.008 0 0 1-.454-1.304c0-.668.242-1.218.727-1.65.484-.431 1.101-.647 1.851-.647.668 0 1.373.111 2.116.334v1.125c-.915-.36-1.596-.54-2.045-.54-.426 0-.778.114-1.055.34a1.06 1.06 0 0 0-.416.856c0 .29.101.545.305.768.203.222.574.488 1.113.797l.621.351c.75.426 1.273.828 1.57 1.207.297.38.446.834.446 1.366 0 .753-.279 1.359-.835 1.816-.557.457-1.294.685-2.212.685zm7.963 0c-.582 0-1.327-.126-2.233-.38v-1.22c.977.454 1.78.68 2.408.68.485 0 .874-.126 1.17-.38.294-.254.442-.588.442-1.002 0-.34-.097-.63-.29-.867-.194-.239-.55-.504-1.07-.797l-.597-.346c-.739-.422-1.26-.82-1.562-1.192a2.008 2.008 0 0 1-.454-1.304c0-.668.242-1.218.727-1.65.484-.431 1.101-.647 1.851-.647a7.35 7.35 0 0 1 2.115.334v1.125c-.914-.36-1.595-.54-2.045-.54-.425 0-.777.114-1.054.34a1.06 1.06 0 0 0-.416.856c0 .29.101.545.304.768.204.222.575.488 1.114.797l.62.351c.75.426 1.274.828 1.571 1.207.297.38.445.834.445 1.366 0 .753-.278 1.359-.834 1.816-.557.457-1.294.685-2.212.685z" fill="#666" fill-rule="nonzero"/><path d="M37 44v2h-2v-2h2zm4 0v2h-2v-2h2zm4 0v2h-2v-2h2zm2-12v-2c2 0 6 0 6 5 0 4 1.5 4 2 4v3c-.5 0-2 0-2 4 0 5-4 5-6 5v-2c2 0 4 0 4-3 0-2 .25-4.75 2.25-5.5-2-.75-2.25-3.5-2.25-5.5 0-3-2-3-4-3zm-14 0c-2 0-4 0-4 3 0 2-.25 4.75-2.25 5.5 2 .75 2.25 3.5 2.25 5.5 0 3 2 3 4 3v2c-2 0-6 0-6-5 0-4-1.5-4-2-4v-3c.5 0 2 0 2-4 0-5 4-5 6-5v2z" fill="#7F7F7F"/></g></svg>