<svg width="80" height="80" viewBox="0 0 80 80" xmlns="http://www.w3.org/2000/svg"><g fill="none" fill-rule="evenodd"><path fill="#CCC" d="M10 0h45v15h15v65H10z"/><path fill="#FFF" d="M11 1h44v14h14v64H11z"/><path fill="#989898" fill-rule="nonzero" d="M55 0l15 15H55z"/><path d="M61.132 55h-3.996l-.288-1.944h-.108c-1.08 1.368-2.916 2.34-5.184 2.34-3.528 0-5.508-2.556-5.508-5.22 0-4.428 3.924-6.66 10.404-6.624v-.288c0-1.152-.468-3.06-3.564-3.06-1.728 0-3.528.54-4.716 1.296l-.864-2.88c1.296-.792 3.564-1.548 6.336-1.548 5.616 0 7.356 3.564 7.356 7.38v6.336c0 1.584-.048 3.132.132 4.212zm-28.59-19l-2.625 9h6.166l-2.625-9h-.916zm-3.5 12L27 55h-5l8-24h6l8 24h-5l-2.042-7h-7.916zm27.518.844c0 .288-.036.648-.144.972-.396 1.26-1.692 2.412-3.456 2.412-1.404 0-2.52-.792-2.52-2.52 0-2.664 2.988-3.348 6.12-3.276v2.412z" fill="#7F7F7F"/></g></svg>