<svg width="80" height="80" viewBox="0 0 80 80" xmlns="http://www.w3.org/2000/svg"><g fill="none" fill-rule="evenodd"><path fill="#CCC" d="M10 0h45v15h15v65H10z"/><path fill="#FFF" d="M11 1h44v14h14v64H11z"/><path fill="#989898" fill-rule="nonzero" d="M55 0l15 15H55z"/><path d="M22 72.672V64h1.23v3.656h4.125V64h1.23v8.672h-1.23v-4.096H23.23v4.096H22zm12.38 0V64.92h-3.075V64h7.383v.92H35.61v7.752h-1.23zm7.026 0V64h1.705l2.403 6.709L47.986 64h1.524v8.672h-1.15v-7.055l-2.39 6.475h-1.19L42.46 65.6v7.072h-1.055zm11.836 0V64h1.23v7.752h3.903v.92h-5.133z" fill="#666" fill-rule="nonzero"/><path d="M56.997 39.5l-1.767 1.76L49.467 47 47.7 45.24l6.056-5.74-6.056-5.74L49.467 32l5.763 5.74 1.767 1.76zm-32.23 1.76L30.53 47l1.767-1.76-6.062-5.74 6.074-5.74L30.53 32l-5.763 5.74L23 39.5l1.767 1.76zm19.548-12.583L41.792 28l-6.035 22.369 2.537.627 6.021-22.319z" fill="gray" fill-rule="nonzero"/></g></svg>