<svg width="80" height="80" viewBox="0 0 80 80" xmlns="http://www.w3.org/2000/svg"><g fill="none" fill-rule="evenodd"><path fill="#CCC" d="M10 0h45v15h15v65H10z"/><path fill="#FFF" d="M11 1h44v14h14v64H11z"/><path fill="#989898" fill-rule="nonzero" d="M55 0l15 15H55z"/><path d="M34 74.28v-1.09c.469.152.883.229 1.242.229.469 0 .796-.134.982-.402.185-.267.278-.735.278-1.403v-7.617h1.23v7.576c0 1.887-.892 2.83-2.677 2.83-.274 0-.625-.041-1.055-.123zm9.129-1.395c-.582 0-1.326-.126-2.233-.38v-1.22c.977.454 1.78.68 2.409.68.484 0 .874-.126 1.169-.38.295-.254.442-.588.442-1.002 0-.34-.097-.63-.29-.867-.193-.239-.55-.504-1.07-.797l-.597-.346c-.738-.422-1.259-.82-1.562-1.192a2.008 2.008 0 0 1-.454-1.304c0-.668.243-1.218.727-1.65.484-.431 1.101-.647 1.851-.647.668 0 1.374.111 2.116.334v1.125c-.914-.36-1.596-.54-2.045-.54-.426 0-.778.114-1.055.34a1.06 1.06 0 0 0-.416.856c0 .29.102.545.305.768.203.222.574.488 1.113.797l.621.351c.75.426 1.274.828 1.57 1.207.297.38.446.834.446 1.366 0 .753-.279 1.359-.835 1.816-.557.457-1.294.685-2.212.685z" fill="#666" fill-rule="nonzero"/><path d="M37 44v2h-2v-2h2zm4 0v2h-2v-2h2zm4 0v2h-2v-2h2zm2-12v-2c2 0 6 0 6 5 0 4 1.5 4 2 4v3c-.5 0-2 0-2 4 0 5-4 5-6 5v-2c2 0 4 0 4-3 0-2 .25-4.75 2.25-5.5-2-.75-2.25-3.5-2.25-5.5 0-3-2-3-4-3zm-14 0c-2 0-4 0-4 3 0 2-.25 4.75-2.25 5.5 2 .75 2.25 3.5 2.25 5.5 0 3 2 3 4 3v2c-2 0-6 0-6-5 0-4-1.5-4-2-4v-3c.5 0 2 0 2-4 0-5 4-5 6-5v2z" fill="#7F7F7F"/></g></svg>