<svg width="80" height="80" viewBox="0 0 80 80" xmlns="http://www.w3.org/2000/svg"><g fill="none" fill-rule="evenodd"><path fill="#CCC" d="M10 0h45v15h15v65H10z"/><path fill="#FFF" d="M11 1h44v14h14v64H11z"/><path fill="#376DA3" fill-rule="nonzero" d="M55 0l15 15H55z"/><path d="M28 72.669v-8.672h2.361c1.047 0 1.8.177 2.256.53.457.354.686.935.686 1.743 0 .922-.313 1.645-.938 2.168-.625.524-1.492.785-2.601.785h-.545v3.446H28zm1.219-4.377h.498c.73 0 1.295-.168 1.693-.504.399-.336.598-.81.598-1.424 0-.52-.156-.89-.469-1.113-.312-.223-.834-.334-1.564-.334h-.756v3.375zm8.613 4.593c-.582 0-1.326-.126-2.232-.38v-1.22c.976.454 1.779.68 2.408.68.484 0 .874-.126 1.169-.38.295-.254.442-.588.442-1.002 0-.34-.097-.63-.29-.867-.193-.239-.55-.504-1.07-.797l-.597-.346c-.738-.422-1.259-.82-1.561-1.192a2.008 2.008 0 0 1-.455-1.304c0-.668.243-1.218.727-1.65.484-.431 1.102-.647 1.852-.647a7.35 7.35 0 0 1 2.115.334v1.125c-.914-.36-1.596-.54-2.045-.54-.426 0-.777.114-1.055.34a1.06 1.06 0 0 0-.416.856c0 .29.102.545.305.768.203.222.574.488 1.113.797l.621.351c.75.426 1.274.828 1.57 1.207.297.38.446.834.446 1.366 0 .753-.278 1.359-.835 1.816-.557.457-1.294.685-2.212.685zm6.264-.216v-8.672h2.883c.859 0 1.553.095 2.083.287.529.191.987.516 1.374.973.613.726.92 1.683.92 2.87 0 1.442-.381 2.56-1.143 3.352-.762.793-1.834 1.19-3.217 1.19h-2.9zm1.23-.92h1.576c1.125 0 1.922-.303 2.391-.908.504-.645.756-1.51.756-2.596 0-1.02-.248-1.82-.744-2.403a2.29 2.29 0 0 0-1.078-.729c-.418-.13-1.047-.196-1.887-.196h-1.014v6.832z" fill="#666" fill-rule="nonzero"/><path d="M26 51V26.5c1.584-.288 3.336-.5 6.324-.5 3.24 0 5.616 1.24 7.164 2.536C40.928 29.724 42 31.732 42 34c0 2.304-.856 4.112-2.224 5.408C38.012 41.172 35.132 42 32 42h-2v9h-4zm4-21v8.364c.54.144 1.208.18 2.108.18 3.312 0 5.328-1.62 5.328-4.464 0-2.7-1.872-4.14-4.932-4.14C31.28 29.94 30 30 30 30zm13.664 20.136c1.296.72 3.204 1.224 5.328 1.224 4.644 0 7.128-2.304 7.128-5.472-.036-2.592-1.512-4.212-4.68-5.364-2.232-.792-3.06-1.332-3.06-2.448 0-1.08.864-1.836 2.448-1.836 1.548 0 2.952.576 3.708 1.008l.864-3.132c-1.008-.54-2.7-1.044-4.644-1.044-4.068 0-6.624 2.412-6.624 5.508-.036 2.052 1.404 3.924 4.824 5.112 2.16.756 2.88 1.368 2.88 2.556 0 1.152-.864 1.944-2.808 1.944-1.584 0-3.492-.648-4.5-1.26l-.864 3.204z" fill="#05498C"/></g></svg>