<svg width="80" height="80" viewBox="0 0 80 80" xmlns="http://www.w3.org/2000/svg"><g fill="none" fill-rule="evenodd"><path fill="#CCC" d="M10 0h45v15h15v65H10z"/><path fill="#FFF" d="M11 1h44v14h14v64H11z"/><path fill="#FFDD0D" fill-rule="nonzero" d="M55 0l15 15H55z"/><path d="M33.504 72.672c.113-.676.274-1.26.483-1.752.21-.492.58-1.168 1.11-2.027l2.368-3.809H33V64h5.566v1.084c-2.222 3.277-3.466 5.807-3.732 7.588h-1.33zm7.84 0v-.984l4.658-6.768h-4.371V64h5.848v.92l-4.659 6.767h4.659v.985h-6.135zM17 35h12v16H17V35zm2 2v4h8v-4h-8zm3-18h7v2h-7v-2zm0 6h7v2h-7v-2zm0 6h7v2h-7v-2zm-5-15h7v2h-7v-2zm0 6h7v2h-7v-2zm0 6h7v2h-7v-2zm5-15h7v2h-7v-2zm-5-3h7v2h-7v-2zm5-3h7v2h-7V7zm-5-3h7v2h-7V4z" fill="#666" fill-rule="nonzero"/></g></svg>