<svg width="80" height="80" viewBox="0 0 80 80" xmlns="http://www.w3.org/2000/svg"><g fill="none" fill-rule="evenodd"><path fill="#CCC" d="M10 0h45v15h15v65H10z"/><path fill="#FFF" d="M11 1h44v14h14v64H11z"/><path fill="#33ABDF" fill-rule="nonzero" d="M55 0l15 15H55z"/><path d="M30.076 72.672V64.92H27V64h7.383v.92h-3.076v7.752h-1.23zm6.004 0l2.877-4.354L36.221 64h1.453l2.086 3.27L41.95 64h1.16l-2.771 4.19 2.842 4.482h-1.453l-2.204-3.44-2.279 3.44H36.08zm11.996 0V64.92H45V64h7.383v.92h-3.076v7.752h-1.23z" fill="#666" fill-rule="nonzero"/><path d="M20 45h40v2H20v-2zm0 5h40v2H20v-2zm0-10h40v2H20v-2zm0-5h40v2H20v-2zm0-5h40v2H20v-2zm0-5h40v2H20v-2z" fill="#0097D7" fill-rule="nonzero"/></g></svg>