<svg width="80" height="80" viewBox="0 0 80 80" xmlns="http://www.w3.org/2000/svg"><g fill="none" fill-rule="evenodd"><path fill="#CCC" d="M10 0h45v15h15v65H10z"/><path fill="#FFF" d="M11 1h44v14h14v64H11z"/><path fill="#8F70D9" fill-rule="nonzero" d="M55 0l15 15H55z"/><path fill="#111" fill-rule="nonzero" d="M33 56V37l16 9.5z"/><path d="M57 58h6v5h-6v-5zm0-7h6v5h-6v-5zm0-7h6v5h-6v-5zm0-7h6v5h-6v-5zm0-7h6v5h-6v-5zM17 58h6v5h-6v-5zm0-7h6v5h-6v-5zm0-7h6v5h-6v-5zm0-7h6v5h-6v-5zm0-7h6v5h-6v-5z" fill="#7E59D4" fill-rule="nonzero"/></g></svg>